<svg version="1.1" viewBox="0.0 0.0 720.0 720.0" fill="none" stroke="none" stroke-linecap="square" stroke-miterlimit="10" xmlns:xlink="http://www.w3.org/1999/xlink" xmlns="http://www.w3.org/2000/svg"><clipPath id="g154204bee28_0_34.0"><path d="m0 0l720.0 0l0 720.0l-720.0 0l0 -720.0z" clip-rule="nonzero"/></clipPath><g clip-path="url(#g154204bee28_0_34.0)"><path fill="#000000" fill-opacity="0.0" d="m0 0l720.0 0l0 720.0l-720.0 0z" fill-rule="evenodd"/><path fill="#000000" d="m299.9177 200.27821l0 -108.18712l-195.27203 0l255.35434 -92.096344l255.35431 92.096344l-195.272 0l0 108.18712z" fill-rule="evenodd"/><path fill="#000000" fill-opacity="0.0" d="m0 148.14961l720.0 0l0 488.0315l-720.0 0z" fill-rule="evenodd"/><path fill="#000000" d="m219.57974 318.09958l0 101.953125q0 35.671875 -4.109375 52.953125q-4.109375 17.265625 -17.34375 32.59375q-13.21875 15.3281555 -31.671875 21.96878q-18.453125 6.640625 -40.640625 6.640625q-28.734375 0 -48.59375 -6.921875q-19.859375 -6.9375 -31.828125 -21.84378q-11.96875 -14.921875 -16.90625 -31.046875q-4.921875 -16.140625 -4.921875 -49.625l0 -106.671875q0 -43.453125 7.96875 -66.45311q7.984375 -23.0 31.8125 -36.953125q23.84375 -13.953125 56.8125 -13.953125q26.8125 0 48.328125 9.546875q21.53125 9.53125 32.53125 23.703125q11.0 14.15625 14.78125 31.32811q3.78125 17.171875 3.78125 52.78125zm-92.359375 -25.671875q0 -22.859375 -1.109375 -25.71875q-1.09375 -2.859375 -4.25 -2.859375q-3.15625 0 -4.546875 3.296875q-1.375 3.296875 -1.375 25.28125l0 149.14062q0 24.84375 1.078125 27.1875q1.09375 2.34375 4.453125 2.34375q3.109375 0 4.421875 -3.1875q1.328125 -3.203125 1.328125 -24.078125l0 -151.40625zm177.31473 20.84375l0 78.203125l-73.671875 0l0 -78.203125l73.671875 0zm0 136.6875l0 78.390656l-73.671875 0l0 -78.390656l73.671875 0zm200.5057 -131.85938l0 101.953125q0 35.671875 -4.109375 52.953125q-4.109375 17.265625 -17.34375 32.59375q-13.21875 15.3281555 -31.671875 21.96878q-18.453125 6.640625 -40.640625 6.640625q-28.734375 0 -48.59375 -6.921875q-19.859375 -6.9375 -31.828125 -21.84378q-11.96875 -14.921875 -16.90625 -31.046875q-4.921875 -16.140625 -4.921875 -49.625l0 -106.671875q0 -43.453125 7.96875 -66.45311q7.984375 -23.0 31.8125 -36.953125q23.84375 -13.953125 56.8125 -13.953125q26.8125 0 48.328125 9.546875q21.53125 9.53125 32.53125 23.703125q11.0 14.15625 14.78125 31.32811q3.78125 17.171875 3.78125 52.78125zm-92.359375 -25.671875q0 -22.859375 -1.109375 -25.71875q-1.09375 -2.859375 -4.25 -2.859375q-3.15625 0 -4.546875 3.296875q-1.375 3.296875 -1.375 25.28125l0 149.14062q0 24.84375 1.078125 27.1875q1.09375 2.34375 4.453125 2.34375q3.109375 0 4.421875 -3.1875q1.328125 -3.203125 1.328125 -24.078125l0 -151.40625zm299.65848 25.671875l0 101.953125q0 35.671875 -4.109375 52.953125q-4.109375 17.265625 -17.34375 32.59375q-13.21875 15.3281555 -31.671875 21.96878q-18.453125 6.640625 -40.640625 6.640625q-28.734375 0 -48.59375 -6.921875q-19.859375 -6.9375 -31.828125 -21.84378q-11.96875 -14.921875 -16.90625 -31.046875q-4.921875 -16.140625 -4.921875 -49.625l0 -106.671875q0 -43.453125 7.96875 -66.45311q7.984375 -23.0 31.8125 -36.953125q23.84375 -13.953125 56.8125 -13.953125q26.8125 0 48.328125 9.546875q21.53125 9.53125 32.53125 23.703125q11.0 14.15625 14.78125 31.32811q3.78125 17.171875 3.78125 52.78125zm-92.359375 -25.671875q0 -22.859375 -1.109375 -25.71875q-1.09375 -2.859375 -4.25 -2.859375q-3.15625 0 -4.546875 3.296875q-1.375 3.296875 -1.375 25.28125l0 149.14062q0 24.84375 1.078125 27.1875q1.09375 2.34375 4.453125 2.34375q3.109375 0 4.421875 -3.1875q1.328125 -3.203125 1.328125 -24.078125l0 -151.40625z" fill-rule="nonzero"/></g></svg>