<svg version="1.1" viewBox="0.0 0.0 720.0 720.0" fill="none" stroke="none" stroke-linecap="square"
  stroke-miterlimit="10" xmlns:xlink="http://www.w3.org/1999/xlink"
  xmlns="http://www.w3.org/2000/svg">
  <clipPath id="g154204bee28_0_226.0">
    <path d="m0 0l720.0 0l0 720.0l-720.0 0l0 -720.0z" clip-rule="nonzero" />
  </clipPath>
  <g clip-path="url(#g154204bee28_0_226.0)">
    <path fill="#000000" fill-opacity="0.0" d="m0 0l720.0 0l0 720.0l-720.0 0z" fill-rule="evenodd" />
    <path fill="#000000"
      d="m196.04288 148.85417l50.614166 23.370087l-162.3937 352.063l-50.614174 -23.370056z"
      fill-rule="evenodd" />
    <path fill="#000000"
      d="m194.29597 120.16384l0 0c9.593231 -20.812874 34.242233 -29.908188 55.055115 -20.314964l0 0c9.994705 4.6068344 17.749985 12.995361 21.559769 23.320198c3.809784 10.324837 3.36203 21.740227 -1.244812 31.734917l0 0c-9.593231 20.812881 -34.24225 29.908203 -55.055115 20.314972l0 0c-20.812881 -9.593231 -29.908188 -34.24225 -20.314957 -55.055122z"
      fill-rule="evenodd" />
    <path fill="#000000"
      d="m19.687687 537.4926l0 0c1.417675 -9.245361 41.204403 -10.867004 88.866135 -3.6220703l0 0c47.661736 7.244934 85.149956 20.612915 83.73229 29.858276l0 0c-1.4176788 9.245361 -41.204407 10.867004 -88.86615 3.6220703l0 0c-47.661736 -7.244934 -85.149956 -20.612976 -83.732285 -29.858276z"
      fill-rule="evenodd" />
    <path fill="#000000"
      d="m17.370707 503.77438l0 0c9.593229 -20.812897 34.24225 -29.908203 55.055122 -20.314972l0 0c9.99469 4.606842 17.74997 12.995361 21.559769 23.32019c3.8097916 10.324829 3.3620224 21.740234 -1.244812 31.734924l0 0c-9.593231 20.812866 -34.242245 29.908203 -55.05512 20.314941l0 0c-20.81287 -9.593201 -29.908188 -34.24225 -20.314959 -55.055084z"
      fill-rule="evenodd" />
    <path fill="#000000"
      d="m99.108154 326.5507l0 0c9.593231 -20.812866 34.24225 -29.908203 55.055115 -20.314972l0 0c9.994705 4.606842 17.749985 12.995361 21.559769 23.32019c3.8097992 10.32486 3.36203 21.740234 -1.2447968 31.734924l0 0c-9.593231 20.812897 -34.24225 29.908203 -55.055122 20.314972l0 0c-20.812874 -9.593231 -29.908188 -34.24225 -20.314964 -55.055115z"
      fill-rule="evenodd" />
    <path fill="#000000"
      d="m616.3709 212.85526l0 0c50.227478 22.082703 78.740234 67.77081 63.68506 102.04724l0 0c-7.2297974 16.460144 -23.745056 28.033478 -45.91278 32.17404c-22.167664 4.140564 -48.171875 0.5091858 -72.29193 -10.095306l0 0c-50.22751 -22.082672 -78.740265 -67.77078 -63.68506 -102.047226l0 0c15.055176 -34.276443 67.977234 -44.161438 118.20471 -22.07875z"
      fill-rule="evenodd" />
    <path fill="#000000"
      d="m585.60785 399.6658l-36.409424 32.881897l-100.31497 -110.80316l36.409454 -32.881866z"
      fill-rule="evenodd" />
    <path fill="#000000"
      d="m470.03564 251.6126l0 0c22.882843 1.148056 40.50238 20.628952 39.35434 43.511826l0 0c-0.55133057 10.9887085 -5.4453125 21.30838 -13.605347 28.688751c-8.160065 7.380371 -18.917725 11.216888 -29.906464 10.665558l0 0c-22.882874 -1.1480408 -40.50238 -20.628937 -39.35434 -43.51181l0 0c1.1480713 -22.882843 20.628967 -40.50238 43.51181 -39.354324z"
      fill-rule="evenodd" />
    <path fill="#000000"
      d="m703.70074 553.1871l0 0c-12.381775 -24.714722 -36.680542 -38.76117 -61.13629 -35.341248c-24.45581 3.4199219 -44.024048 23.600708 -49.23419 50.77545l21.675842 6.09906l0 0c2.8105469 -18.615356 15.07489 -32.48346 30.655518 -34.664062c15.580566 -2.180603 31.125793 7.795288 38.856262 24.935364z"
      fill-rule="evenodd" />
    <path fill="#000000"
      d="m552.09595 365.15723l0 0c22.421936 -4.661804 44.377563 9.735565 49.039368 32.15747l0 0c2.2387085 10.7673645 0.1083374 21.983063 -5.9223022 31.179718c-6.0307007 9.196655 -15.467773 15.620972 -26.235168 17.85965l0 0c-22.421875 4.661804 -44.377563 -9.735596 -49.039368 -32.15747l0 0c-4.661804 -22.421906 9.735596 -44.377563 32.15747 -49.039368z"
      fill-rule="evenodd" />
    <path fill="#000000"
      d="m629.0995 472.92426l0 0c18.099304 -3.7746582 35.831604 7.837738 39.606323 25.937012l0 0c1.8126221 8.691589 0.09832764 17.747253 -4.765808 25.174866c-4.8641357 7.4276733 -12.479614 12.618774 -21.171204 14.4314575l0 0c-18.099304 3.7746582 -35.831665 -7.8377686 -39.606323 -25.937012l0 0c-3.7746582 -18.099304 7.8377075 -35.831635 25.937012 -39.606323z"
      fill-rule="evenodd" />
    <path fill="#000000"
      d="m660.9928 499.38962l-28.251953 25.543304l-87.370056 -96.47244l28.251953 -25.543304z"
      fill-rule="evenodd" />
    <path fill="#000000"
      d="m227.80692 163.45213l0 0c-8.636063 -5.45726 -11.213791 -16.88266 -5.7575226 -25.519348l39.516678 -62.55056l0 0c2.6201782 -4.147484 6.7805176 -7.0840454 11.565796 -8.163666c4.785248 -1.0796127 9.803436 -0.21385956 13.950623 2.406807l219.78119 138.88316c8.636078 5.4572754 11.213776 16.882675 5.757477 25.519363l-39.516632 62.550568c-5.456299 8.636688 -16.880371 11.214111 -25.516449 5.756836z"
      fill-rule="evenodd" />
  </g>
</svg>
