<svg version="1.1" viewBox="0.0 0.0 720.0 720.0" fill="none" stroke="none" stroke-linecap="square" stroke-miterlimit="10" xmlns:xlink="http://www.w3.org/1999/xlink" xmlns="http://www.w3.org/2000/svg"><clipPath id="g154204bee28_0_149.0"><path d="m0 0l720.0 0l0 720.0l-720.0 0l0 -720.0z" clip-rule="nonzero"/></clipPath><g clip-path="url(#g154204bee28_0_149.0)"><path fill="#000000" fill-opacity="0.0" d="m0 0l720.0 0l0 720.0l-720.0 0z" fill-rule="evenodd"/><path fill="#000000" d="m317.40158 360.0l85.19684 0l0 0c47.738983 0 93.522675 18.964233 127.279205 52.720764c33.75659 33.75656 52.720825 79.54025 52.720825 127.279236l0 180.0c0 0.0020751953 -0.0017089844 0.0037231445 -0.0037231445 0.0037231445l-445.19315 -0.0037231445l0 0c-0.0020599365 0 -0.0037231445 -0.0016479492 -0.0037231445 -0.0037231445l0.0037231445 -179.99628l0 0c0 -99.411255 80.588745 -180.0 180.0 -180.0z" fill-rule="evenodd"/><path fill="#000000" d="m71.49606 687.87415l0 0c0 -3.548584 2.8767166 -6.425354 6.4253235 -6.425354l564.1572 0c1.7041016 0 3.338379 0.67700195 4.543396 1.881958c1.204956 1.204956 1.881958 2.8392944 1.881958 4.543396l0 25.7005c0 3.548645 -2.87677 6.425354 -6.425354 6.425354l-564.1572 0c-3.5486069 0 -6.4253235 -2.876709 -6.4253235 -6.425354z" fill-rule="evenodd"/><path fill="#000000" d="m317.40158 360.0l85.19684 0l0 0c47.738983 0 93.522675 -18.964233 127.279205 -52.720764c33.75659 -33.75656 52.720825 -79.54027 52.720825 -127.279236l0 -180.0c0 -0.0020489618 -0.0017089844 -0.0037099738 -0.0037231445 -0.0037099738l-445.19315 0.0037099738l0 0c-0.0020599365 0 -0.0037231445 0.0016610118 -0.0037231445 0.0037099738l0.0037231445 179.99629l0 0c0 99.411255 80.588745 180.0 180.0 180.0z" fill-rule="evenodd"/><path fill="#000000" d="m71.49606 6.4253254l0 0c0 -3.5486093 2.8767166 -6.4253254 6.4253235 -6.4253254l564.1572 0c1.7041016 0 3.338379 0.676952 4.543396 1.8819342c1.204956 1.2049823 1.881958 2.8392892 1.881958 4.543391l0 25.70053c0 3.5486107 -2.87677 6.4253273 -6.425354 6.4253273l-564.1572 0c-3.5486069 0 -6.4253235 -2.8767166 -6.4253235 -6.4253273z" fill-rule="evenodd"/><path fill="#000000" d="m107.41732 13.858268l598.7402 598.7402l-93.57477 93.543274l-598.7402 -598.7402z" fill-rule="evenodd"/><path stroke="#aaa1a1" stroke-width="24.0" stroke-linejoin="round" stroke-linecap="butt" d="m107.41732 13.858268l598.7402 598.7402l-93.57477 93.543274l-598.7402 -598.7402z" fill-rule="evenodd"/></g></svg>